<?xml version="1.0" standalone="no"?>
<!DOCTYPE svg PUBLIC "-//W3C//DTD SVG 20010904//EN"
 "http://www.w3.org/TR/2001/REC-SVG-20010904/DTD/svg10.dtd">
<svg version="1.0" xmlns="http://www.w3.org/2000/svg"
 width="451.000000pt" height="481.000000pt" viewBox="0 0 451.000000 481.000000"
 preserveAspectRatio="xMidYMid meet">
<metadata>
Created by potrace 1.16, written by Peter Selinger 2001-2019
</metadata>
<g transform="translate(0.000000,481.000000) scale(0.100000,-0.100000)"
fill="#000000" stroke="none">
<path d="M2041 4745 c-296 -45 -595 -161 -891 -345 -221 -138 -363 -253 -551
-448 l-123 -127 227 -3 c177 -2 226 -5 221 -15 -4 -6 63 60 149 149 210 217
360 331 577 440 134 67 287 117 419 139 137 23 390 16 501 -13 340 -91 640
-278 927 -576 66 -68 126 -125 134 -126 8 -1 114 -2 237 -1 l223 1 -23 33
c-40 56 -209 220 -318 307 -354 282 -790 496 -1165 570 -143 29 -407 36 -544
15z"/>
<path d="M2725 3828 c-3 -7 -6 -389 -8 -848 -4 -932 -2 -908 -74 -1060 -27
-56 -55 -94 -113 -152 -43 -43 -75 -78 -73 -78 3 0 40 18 82 40 152 79 242
179 288 320 l28 85 0 850 0 850 -63 3 c-44 2 -64 -1 -67 -10z"/>
<path d="M1370 3255 l0 -165 185 0 185 0 0 -539 c0 -498 1 -540 18 -560 16
-21 24 -22 177 -19 l160 3 3 558 2 557 134 0 c104 0 136 3 146 14 8 11 10 54
4 165 l-7 151 -503 0 -504 0 0 -165z"/>
<path d="M3980 2591 c0 -45 -25 -182 -47 -261 -39 -138 -118 -308 -207 -445
-67 -102 -416 -458 -536 -545 -187 -137 -379 -231 -585 -286 -134 -35 -398
-45 -545 -20 -263 46 -574 197 -785 381 -69 61 -221 215 -291 295 -26 30 -57
58 -69 63 -25 9 -148 191 -200 296 -48 97 -99 232 -115 304 -13 55 -30 62 -30
12 0 -17 2 -17 10 -5 8 13 10 13 10 -2 0 -9 2 -22 5 -30 3 -8 -3 -13 -20 -14
-14 -1 -25 4 -25 11 0 21 -25 25 -146 25 -107 0 -114 -1 -114 -20 0 -17 -7
-20 -44 -20 -24 0 -46 -3 -49 -7 -2 -5 -2 -2 -1 5 2 6 -1 12 -7 12 -6 0 -8 4
-4 9 3 5 1 12 -5 16 -5 3 -11 16 -11 28 -1 17 -2 18 -6 5 -7 -26 81 -277 132
-377 53 -107 179 -295 253 -380 62 -70 210 -216 283 -279 234 -199 564 -368
891 -456 395 -107 865 -94 1251 35 541 180 1060 633 1302 1134 59 124 97 228
125 351 25 108 25 120 -3 64 -40 -80 -40 -80 -74 -80 -26 0 -33 4 -33 20 0 17
-7 20 -40 20 -33 0 -40 3 -40 20 0 18 -7 20 -80 20 -47 0 -80 -4 -80 -10 0 -5
-7 -10 -15 -10 -8 0 -15 -4 -15 -10 0 -5 -5 -10 -11 -10 -7 0 -8 7 -4 18 19
49 9 74 -13 30 -8 -18 -9 -12 -5 32 3 30 9 59 14 64 9 10 1 36 -12 36 -5 0 -9
-18 -9 -39z"/>
<path d="M2403 644 c-10 -4 -13 -57 -13 -216 l0 -210 -28 -26 c-15 -15 -42
-35 -60 -44 -18 -9 -32 -22 -32 -27 0 -6 14 -26 30 -45 30 -33 32 -34 62 -22
52 22 99 66 119 112 17 38 19 65 17 261 l-3 218 -40 2 c-22 1 -46 0 -52 -3z"/>
<path d="M1008 633 l-48 -4 0 -240 0 -239 90 0 c103 0 148 14 198 62 84 82 98
280 24 361 -42 47 -144 70 -264 60z m189 -167 c31 -36 32 -112 2 -150 -25 -32
-69 -56 -104 -56 l-25 0 0 121 0 122 52 -5 c40 -4 57 -11 75 -32z"/>
<path d="M1421 493 c-18 -9 -45 -34 -60 -57 -22 -33 -26 -50 -26 -111 0 -63 3
-76 29 -109 54 -71 141 -86 217 -37 58 36 79 80 79 163 0 46 -6 72 -20 96 -38
63 -147 90 -219 55z"/>
<path d="M1768 503 c-32 -3 -48 -9 -53 -21 -3 -9 -3 -88 1 -175 l7 -157 47 0
48 0 7 108 c8 142 7 137 33 140 45 7 52 -12 52 -134 l0 -114 34 0 c19 0 41 -3
50 -6 14 -5 16 10 16 134 0 138 0 141 -27 173 -46 54 -80 62 -215 52z"/>
<path d="M2652 489 c-25 -13 -55 -39 -69 -60 -22 -34 -25 -47 -21 -103 7 -116
78 -183 185 -174 44 4 60 11 89 39 56 53 67 83 62 159 -6 78 -26 113 -79 141
-50 25 -113 24 -167 -2z"/>
<path d="M2988 485 c-45 -31 -58 -53 -58 -98 0 -62 24 -78 123 -84 72 -5 87
-9 87 -22 0 -33 -22 -41 -111 -41 -95 0 -99 -3 -99 -62 l0 -30 124 4 c115 3
126 5 150 27 32 30 50 82 41 121 -9 39 -45 58 -132 67 -50 6 -68 12 -68 23 0
12 18 16 93 18 l92 3 0 49 0 50 -103 0 c-93 0 -106 -2 -139 -25z"/>
<path d="M3385 496 c-137 -62 -144 -281 -10 -331 55 -22 135 -16 173 12 34 26
36 35 13 64 -17 21 -27 24 -76 22 -31 -2 -55 1 -53 5 2 5 35 37 73 71 94 85
96 88 54 124 -58 49 -114 60 -174 33z"/>
</g>
</svg>
